<?xml version="1.0" encoding="UTF-8" standalone="no"?><!DOCTYPE svg PUBLIC "-//W3C//DTD SVG 1.1//EN" "http://www.w3.org/Graphics/SVG/1.1/DTD/svg11.dtd"><svg width="100%" height="100%" viewBox="0 0 3334 3334" version="1.1" xmlns="http://www.w3.org/2000/svg" xmlns:xlink="http://www.w3.org/1999/xlink" xml:space="preserve" xmlns:serif="http://www.serif.com/" style="fill-rule:evenodd;clip-rule:evenodd;stroke-linejoin:round;stroke-miterlimit:2;"><g id="SVGRepo_iconCarrier"><path d="M1735.72,1883.37l-369.924,153.243l-153.242,-369.923l523.166,216.68Z" style="fill:#b3b3b3;fill-rule:nonzero;"/><g><path d="M2258.88,1666.68l-523.166,-216.688l225.235,-93.294l387.339,-160.47c300.496,-124.473 641.187,-106.282 926.677,49.525l-790.856,327.632l-225.229,93.295Z" style="fill:#ccc;fill-rule:nonzero;"/><path d="M3275.05,2087.61c-285.567,155.729 -626.259,173.92 -926.755,49.446l-612.574,-253.692l-523.166,-216.687l153.243,-369.923l369.923,153.242l523.166,216.688l1016.16,420.926Z" style="fill:#ccc;fill-rule:nonzero;"/></g><path d="M2258.88,1666.68l-523.166,-216.688l225.235,-93.294l297.931,123.386l225.242,93.294l-225.242,93.302Z" style="fill:#b3b3b3;fill-rule:nonzero;"/><g><path d="M826.219,3028.98c-283.393,117.324 -608.225,-17.182 -725.621,-300.575c-117.397,-283.393 17.181,-608.303 300.574,-725.621l811.377,-336.101l153.242,369.923l44.473,107.37l-299.721,124.161c5.755,11.426 11.276,23.17 16.25,35.221c117.403,283.315 -17.181,608.225 -300.574,725.622Zm-344.969,-193.354c176.563,73.158 379.019,-10.729 452.183,-187.292c73.158,-176.642 -10.729,-379.097 -187.292,-452.183c-176.564,-73.158 -379.019,10.651 -452.183,187.292c-73.165,176.563 10.729,379.019 187.292,452.183Z" style="fill:#22d3ee;fill-rule:nonzero;"/><path d="M1212.55,1666.68l-811.377,-336.102c-283.393,-117.403 -417.977,-442.306 -300.574,-725.621c117.402,-283.393 442.228,-417.971 725.621,-300.574c283.393,117.324 417.977,442.228 300.574,725.621c-4.974,12.051 -10.495,23.711 -16.25,35.221l299.721,124.161l-44.473,107.37l-153.242,369.924Zm-731.299,-529.469c176.563,73.158 379.019,-10.729 452.183,-187.292c73.158,-176.641 -10.729,-379.097 -187.292,-452.183c-176.564,-73.158 -379.019,10.651 -452.183,187.293c-73.165,176.569 10.729,379.024 187.292,452.182Z" style="fill:#22d3ee;fill-rule:nonzero;"/></g><g><path d="M797.091,1326.9c0,-7.441 1.433,-15 4.453,-22.292c12.325,-29.752 46.439,-43.887 76.186,-31.556l267.748,110.919c29.753,12.324 43.874,46.445 31.556,76.185c-12.324,29.752 -46.439,43.887 -76.185,31.556l-267.748,-110.919c-22.455,-9.303 -36.01,-31.009 -36.01,-53.893Z" style="fill:#fff;fill-rule:nonzero;"/><path d="M935.015,2125.77c0,-22.884 13.555,-44.59 36.003,-53.893l188.536,-78.112c29.752,-12.331 63.861,1.797 76.185,31.549c12.331,29.779 -1.797,63.868 -31.55,76.192l-188.536,78.112c-29.752,12.331 -63.861,-1.797 -76.185,-31.549c-3.027,-7.299 -4.453,-14.857 -4.453,-22.299Z" style="fill:#fff;fill-rule:nonzero;"/></g><g><path d="M987.313,972.216c41.329,-99.799 41.342,-209.708 0,-309.52c-41.341,-99.798 -119.063,-177.52 -218.861,-218.855c-206.017,-85.339 -443.049,12.845 -528.381,218.855c-20.899,50.45 -30.788,102.755 -30.788,154.239c0,158.77 94.082,309.715 249.649,374.149c99.799,41.341 209.728,41.341 309.526,-0c99.792,-41.342 177.521,-119.07 218.855,-218.868Zm-483.752,111.126c-110.71,-45.853 -177.669,-153.262 -177.656,-266.257c-0,-36.628 7.044,-73.868 21.907,-109.76c60.73,-146.602 229.402,-216.472 376.004,-155.742c71.016,29.42 126.335,84.726 155.743,155.755c14.707,35.508 22.064,72.813 22.064,110.124c-0,37.312 -7.357,74.63 -22.064,110.131c-29.421,71.023 -84.727,126.335 -155.743,155.743c-71.016,29.414 -149.232,29.414 -220.255,0.006Z" style="fill:#333;fill-rule:nonzero;"/><path d="M987.313,2670.62c41.329,-99.792 41.342,-209.702 0,-309.526c-41.341,-99.799 -119.063,-177.52 -218.861,-218.855c-206.017,-85.339 -443.049,12.845 -528.381,218.855c-20.899,50.449 -30.788,102.754 -30.788,154.239c0,158.77 94.082,309.714 249.649,374.148c99.799,41.342 209.728,41.342 309.526,0c99.792,-41.335 177.521,-119.063 218.855,-218.861Zm-483.752,111.126c-71.022,-29.42 -126.335,-84.726 -155.742,-155.749c-29.427,-70.99 -29.427,-149.219 -0,-220.261c60.729,-146.602 229.402,-216.472 376.004,-155.743c71.016,29.421 126.335,84.727 155.743,155.749c14.707,35.508 22.063,72.813 22.063,110.125c0,37.311 -7.356,74.629 -22.063,110.13c-29.421,71.023 -84.727,126.335 -155.743,155.749c-71.023,29.408 -149.239,29.408 -220.262,0Z" style="fill:#333;fill-rule:nonzero;"/><path d="M848.543,3082.84c306.584,-126.992 455.809,-475.373 339.331,-783.629l244.728,-101.374c29.752,-12.324 43.88,-46.426 31.556,-76.185l-22.175,-53.523l293.719,-121.66l590.249,244.486c318.387,131.876 674.482,112.852 976.99,-52.194c19.72,-10.768 31.582,-31.816 30.3,-54.297c-1.198,-22.422 -15.17,-42.168 -35.912,-50.755l-886.123,-367.039l886.11,-367.053c20.742,-8.58 34.714,-28.34 35.911,-50.755c1.29,-22.435 -10.579,-43.548 -30.293,-54.297c-302.468,-165.053 -658.563,-184.076 -976.963,-52.194l-590.256,244.493l-293.732,-121.667l22.175,-53.529c5.918,-14.291 5.918,-30.339 -0,-44.629c-5.918,-14.291 -17.266,-25.638 -31.556,-31.556l-244.728,-101.368c116.485,-308.296 -32.747,-656.643 -339.331,-783.629c-151.446,-62.735 -318.256,-62.735 -469.702,-0.007c-151.446,62.735 -269.396,180.684 -332.124,332.13c-31.712,76.557 -46.719,155.925 -46.719,234.051c0,240.925 142.768,469.988 378.849,567.769l681.37,282.234l-681.37,282.234c-236.094,97.794 -378.849,326.824 -378.849,567.769c0,78.106 15.02,157.52 46.719,234.051c62.728,151.446 180.678,269.389 332.124,332.13c151.446,62.728 318.256,62.728 469.702,-0.007Zm548.818,-1122.46l-77.038,-185.984l263.021,108.946l-185.983,77.038Zm973.246,-710.277c245.678,-101.758 516.356,-103.372 759.931,-7.63l-871.696,361.069l-370.757,-153.568l482.522,-199.871Zm759.931,840.739c-243.608,95.73 -514.292,94.115 -759.957,-7.63l-1081.82,-448.107l62.761,-151.524l45.834,-110.652l1733.18,717.913Zm-2707.07,-814.156c-122.663,-50.808 -218.197,-146.349 -269.011,-269.018c-50.808,-122.657 -50.814,-257.768 -0,-380.445c50.807,-122.663 146.348,-218.197 269.011,-269.018c122.663,-50.814 257.774,-50.807 380.444,0c191.231,79.213 306.85,264.721 306.85,459.878c0,63.269 -12.161,127.579 -37.838,189.565c-3.926,9.486 -8.555,19.512 -14.558,31.582c-7.194,14.466 -8.06,31.276 -2.402,46.413c5.671,15.137 17.363,27.24 32.298,33.425l245.822,101.83l-88.276,213.125l-64.804,156.446l-757.536,-313.783Zm0,1698.4c-122.663,-50.808 -218.197,-146.349 -269.011,-269.018c-50.814,-122.664 -50.814,-257.775 -0,-380.445c50.807,-122.663 146.348,-218.197 269.011,-269.018l757.549,-313.783l130.905,316.036c0,0.007 0.007,0.013 0.007,0.026l22.161,53.49l-245.821,101.836c-14.935,6.179 -26.628,18.295 -32.298,33.431c-5.671,15.131 -4.799,31.947 2.408,46.426c5.977,12.006 10.599,22.032 14.538,31.556c104.883,253.224 -15.788,544.566 -269.011,649.456c-122.664,50.821 -257.775,50.821 -380.438,0.007Z" style="fill:#333;fill-rule:nonzero;"/><path d="M1782.58,1671.42c-0,32.184 -26.13,58.314 -58.314,58.314c-32.185,-0 -58.314,-26.13 -58.314,-58.314c-0,-32.185 26.129,-58.314 58.314,-58.314c32.184,-0 58.314,26.129 58.314,58.314Z" style="fill:#333;"/></g></g></svg>